# 3ds Max Wavefront OBJ Exporter v0.97b - (c)2007 guruware
# File Created: 08.03.2012 22:07:24

mtllib st.mtl

#
# object Road_2_Lane_Straight
#

v  0.0000 0.0000 -360.0000
v  3600.0000 0.0000 -360.0000
v  3600.0000 0.0000 -0.0000
v  0.0000 0.0000 -0.0000
v  3600.0000 72.0000 -0.0000
v  3600.0000 72.0000 -360.0000
v  0.0000 72.0000 -360.0000
v  0.0000 72.0000 -0.0000
v  0.0000 0.0000 -3600.0000
v  0.0000 72.0000 -3600.0000
v  3600.0000 72.0000 -3600.0000
v  3600.0000 0.0000 -3600.0000
v  0.0000 0.0000 -378.0000
v  3600.0000 0.0000 -378.0000
v  0.0000 45.0000 -378.0000
v  3600.0000 45.0000 -378.0000
v  0.0000 0.0000 -522.0000
v  3600.0000 0.0000 -522.0000
v  0.0000 45.0000 -522.0000
v  3600.0000 45.0000 -522.0000
v  0.0000 0.0000 -540.0000
v  3600.0000 0.0000 -540.0000
v  0.0000 72.0000 -540.0000
v  3600.0000 72.0000 -540.0000
v  0.0000 0.0000 -576.0000
v  3600.0000 0.0000 -576.0000
v  0.0000 72.0000 -576.0000
v  3600.0000 72.0000 -576.0000
v  0.0000 0.0000 -594.0000
v  3600.0000 0.0000 -594.0000
v  0.0000 18.0000 -594.0000
v  3600.0000 18.0000 -594.0000
v  0.0000 0.0000 -630.0000
v  3600.0000 0.0000 -630.0000
v  0.0000 18.0000 -630.0000
v  3600.0000 18.0000 -630.0000
v  0.0000 0.0000 -774.0000
v  3600.0000 0.0000 -774.0000
v  0.0000 45.0000 -774.0000
v  3600.0000 45.0000 -774.0000
v  0.0000 0.0000 -792.0000
v  3600.0000 0.0000 -792.0000
v  0.0000 45.0000 -792.0000
v  3600.0000 45.0000 -792.0000
v  0.0000 0.0000 -828.0000
v  3600.0000 0.0000 -828.0000
v  0.0000 45.0000 -828.0000
v  3600.0000 45.0000 -828.0000
v  3600.0000 0.0000 -1818.0000
v  3600.0000 0.0000 -1782.0000
v  0.0000 0.0000 -1782.0000
v  0.0000 0.0000 -1818.0000
v  0.0000 45.0000 -1782.0000
v  0.0000 45.0000 -1818.0000
v  3600.0000 45.0000 -1782.0000
v  3600.0000 45.0000 -1818.0000
v  0.0000 0.0000 -2772.0000
v  0.0000 0.0000 -2808.0000
v  3600.0000 0.0000 -2808.0000
v  3600.0000 0.0000 -2772.0000
v  0.0000 45.0000 -2772.0000
v  0.0000 45.0000 -2808.0000
v  3600.0000 45.0000 -2772.0000
v  3600.0000 45.0000 -2808.0000
v  0.0000 0.0000 -2826.0000
v  3600.0000 0.0000 -2826.0000
v  0.0000 45.0000 -2826.0000
v  3600.0000 45.0000 -2826.0000
v  0.0000 0.0000 -2970.0000
v  3600.0000 0.0000 -2970.0000
v  0.0000 18.0000 -2970.0000
v  3600.0000 18.0000 -2970.0000
v  0.0000 0.0000 -3006.0000
v  3600.0000 0.0000 -3006.0000
v  0.0000 18.0000 -3006.0000
v  3600.0000 18.0000 -3006.0000
v  0.0000 0.0000 -3024.0000
v  3600.0000 0.0000 -3024.0000
v  0.0000 72.0000 -3024.0000
v  3600.0000 72.0000 -3024.0000
v  0.0000 0.0000 -3060.0000
v  3600.0000 0.0000 -3060.0000
v  0.0000 72.0000 -3060.0000
v  3600.0000 72.0000 -3060.0000
v  0.0000 0.0000 -3078.0000
v  3600.0000 0.0000 -3078.0000
v  0.0000 45.0000 -3078.0000
v  3600.0000 45.0000 -3078.0000
v  0.0000 0.0000 -3222.0000
v  3600.0000 0.0000 -3222.0000
v  0.0000 45.0000 -3222.0000
v  3600.0000 45.0000 -3222.0000
v  0.0000 0.0000 -3240.0000
v  3600.0000 0.0000 -3240.0000
v  0.0000 72.0000 -3240.0000
v  3600.0000 72.0000 -3240.0000
# 96 vertices

vn 0.0000 -1.0000 -0.0000
vn 0.0000 1.0000 -0.0000
vn 0.0000 0.0000 1.0000
vn 1.0000 0.0000 -0.0000
vn 0.0000 0.0000 -1.0000
vn -1.0000 0.0000 -0.0000
vn 0.0000 0.5547 -0.8321
vn 0.0000 0.5547 0.8321
vn 0.0000 0.3162 -0.9487
vn 0.0000 0.9829 0.1843
vn 0.0000 0.9829 -0.1843
vn 0.0000 0.3162 0.9487
# 12 vertex normals

vt 0.9455 0.0240 0.0000
vt 0.9455 0.8464 0.0000
vt 0.8974 0.8464 0.0000
vt 0.8974 0.0240 0.0000
vt 0.8356 0.0465 0.0000
vt 0.8356 0.1285 0.0000
vt 0.0159 0.1285 0.0000
vt 0.0159 0.0465 0.0000
vt 0.8356 0.0268 0.0000
vt 0.8356 0.0432 0.0000
vt 0.0159 0.0432 0.0000
vt 0.0159 0.0268 0.0000
vt 0.9263 0.1062 0.0000
vt 0.9167 0.1062 0.0000
vt 0.9167 0.0240 0.0000
vt 0.9263 0.0240 0.0000
vt 0.0159 0.9774 0.0000
vt 0.0159 0.9611 0.0000
vt 0.8356 0.9610 0.0000
vt 0.8356 0.9774 0.0000
vt 0.9263 0.8464 0.0000
vt 0.9166 0.8464 0.0000
vt 0.9166 0.7642 0.0000
vt 0.9263 0.7642 0.0000
vt 0.8902 0.0240 0.0000
vt 0.8926 0.0240 0.0000
vt 0.8926 0.8464 0.0000
vt 0.8902 0.8464 0.0000
vt 0.9203 0.7601 0.0000
vt 0.9263 0.7601 0.0000
vt 0.8356 0.1326 0.0000
vt 0.8356 0.1400 0.0000
vt 0.0159 0.1400 0.0000
vt 0.0159 0.1326 0.0000
vt 0.9263 0.1103 0.0000
vt 0.9203 0.1103 0.0000
vt 0.9118 0.0240 0.0000
vt 0.9118 0.8464 0.0000
vt 0.9203 0.7272 0.0000
vt 0.9263 0.7272 0.0000
vt 0.8356 0.1436 0.0000
vt 0.8356 0.1764 0.0000
vt 0.0159 0.1764 0.0000
vt 0.0159 0.1436 0.0000
vt 0.9263 0.1432 0.0000
vt 0.9203 0.1432 0.0000
vt 0.9142 0.0240 0.0000
vt 0.9142 0.8464 0.0000
vt 0.9166 0.7230 0.0000
vt 0.9263 0.7230 0.0000
vt 0.8356 0.1804 0.0000
vt 0.8356 0.1878 0.0000
vt 0.0159 0.1878 0.0000
vt 0.0159 0.1804 0.0000
vt 0.9263 0.1473 0.0000
vt 0.9167 0.1473 0.0000
vt 0.9191 0.0240 0.0000
vt 0.9191 0.8464 0.0000
vt 0.9166 0.7148 0.0000
vt 0.9263 0.7148 0.0000
vt 0.8356 0.1922 0.0000
vt 0.8356 0.2004 0.0000
vt 0.0159 0.2004 0.0000
vt 0.0159 0.1922 0.0000
vt 0.9263 0.1556 0.0000
vt 0.9167 0.1556 0.0000
vt 0.9215 0.0240 0.0000
vt 0.9215 0.8464 0.0000
vt 0.9239 0.7107 0.0000
vt 0.9263 0.7107 0.0000
vt 0.8356 0.2045 0.0000
vt 0.8356 0.2174 0.0000
vt 0.0159 0.2174 0.0000
vt 0.0159 0.2045 0.0000
vt 0.9263 0.1597 0.0000
vt 0.9239 0.1597 0.0000
vt 0.9239 0.7025 0.0000
vt 0.9263 0.7025 0.0000
vt 0.8356 0.2212 0.0000
vt 0.8356 0.2294 0.0000
vt 0.0159 0.2294 0.0000
vt 0.0159 0.2212 0.0000
vt 0.9263 0.1679 0.0000
vt 0.9239 0.1679 0.0000
vt 0.9203 0.6696 0.0000
vt 0.9263 0.6696 0.0000
vt 0.8356 0.2336 0.0000
vt 0.8356 0.2670 0.0000
vt 0.0159 0.2670 0.0000
vt 0.0159 0.2336 0.0000
vt 0.9263 0.2008 0.0000
vt 0.9203 0.2008 0.0000
vt 0.9479 0.0240 0.0000
vt 0.9479 0.8464 0.0000
vt 0.9203 0.6655 0.0000
vt 0.9263 0.6655 0.0000
vt 0.8356 0.2711 0.0000
vt 0.8356 0.2752 0.0000
vt 0.0159 0.2752 0.0000
vt 0.0159 0.2711 0.0000
vt 0.9263 0.2049 0.0000
vt 0.9203 0.2049 0.0000
vt 0.9528 0.0240 0.0000
vt 0.9528 0.8464 0.0000
vt 0.9203 0.6572 0.0000
vt 0.9263 0.6572 0.0000
vt 0.8356 0.2834 0.0000
vt 0.0159 0.2834 0.0000
vt 0.9263 0.2131 0.0000
vt 0.9203 0.2131 0.0000
vt 0.9877 0.8464 0.0000
vt 0.9829 0.8464 0.0000
vt 0.9829 0.0240 0.0000
vt 0.9877 0.0240 0.0000
vt 0.9263 0.4311 0.0000
vt 0.9263 0.4393 0.0000
vt 0.9203 0.4393 0.0000
vt 0.9203 0.4311 0.0000
vt 0.0159 0.5088 0.0000
vt 0.0159 0.5006 0.0000
vt 0.8356 0.5006 0.0000
vt 0.8356 0.5088 0.0000
vt 0.8950 0.0240 0.0000
vt 0.8950 0.8464 0.0000
vt 0.8356 0.7260 0.0000
vt 0.8356 0.7342 0.0000
vt 0.0159 0.7342 0.0000
vt 0.0159 0.7260 0.0000
vt 0.8356 0.7383 0.0000
vt 0.0159 0.7383 0.0000
vt 0.8356 0.7414 0.0000
vt 0.8356 0.7747 0.0000
vt 0.0159 0.7748 0.0000
vt 0.0159 0.7414 0.0000
vt 0.8356 0.7782 0.0000
vt 0.8356 0.7864 0.0000
vt 0.0159 0.7864 0.0000
vt 0.0159 0.7782 0.0000
vt 0.9239 0.0240 0.0000
vt 0.9239 0.8464 0.0000
vt 0.8356 0.7898 0.0000
vt 0.8356 0.8028 0.0000
vt 0.0159 0.8028 0.0000
vt 0.0159 0.7898 0.0000
vt 0.9287 0.0240 0.0000
vt 0.9287 0.8464 0.0000
vt 0.8356 0.8062 0.0000
vt 0.8356 0.8144 0.0000
vt 0.0159 0.8144 0.0000
vt 0.0159 0.8062 0.0000
vt 0.9311 0.0240 0.0000
vt 0.9311 0.8464 0.0000
vt 0.8356 0.8175 0.0000
vt 0.8356 0.8249 0.0000
vt 0.0159 0.8249 0.0000
vt 0.0159 0.8175 0.0000
vt 0.9504 0.0240 0.0000
vt 0.9504 0.8464 0.0000
vt 0.8356 0.8284 0.0000
vt 0.8356 0.8611 0.0000
vt 0.0159 0.8611 0.0000
vt 0.0159 0.8284 0.0000
vt 0.8356 0.8646 0.0000
vt 0.8356 0.8720 0.0000
vt 0.0159 0.8720 0.0000
vt 0.0159 0.8646 0.0000
vt 0.8356 0.8754 0.0000
vt 0.8356 0.9573 0.0000
vt 0.0159 0.9573 0.0000
vt 0.0159 0.8754 0.0000
vt 0.9853 0.8464 0.0000
vt 0.8577 0.8464 0.0000
vt 0.8577 0.0240 0.0000
vt 0.9853 0.0240 0.0000
vt 0.8553 0.0240 0.0000
vt 0.8553 0.8464 0.0000
# 176 texture coords

g Road_2_Lane_Straight
usemtl _stRoad_2_Lane_Straight
s 2
f 1/1/1 2/2/1 3/3/1 4/4/1 
s 4
f 5/5/2 6/6/2 7/7/2 8/8/2 
s 8
f 3/9/3 5/10/3 8/11/3 4/12/3 
s 16
f 2/13/4 6/14/4 5/15/4 3/16/4 
s 32
f 9/17/5 10/18/5 11/19/5 12/20/5 
s 64
f 4/21/6 8/22/6 7/23/6 1/24/6 
s off
f 1/25/1 13/26/1 14/27/1 2/28/1 
f 1/24/6 7/23/6 15/29/6 13/30/6 
f 6/31/7 16/32/7 15/33/7 7/34/7 
f 2/13/4 14/35/4 16/36/4 6/14/4 
f 13/26/1 17/37/1 18/38/1 14/27/1 
f 15/29/6 19/39/6 17/40/6 13/30/6 
f 16/41/2 20/42/2 19/43/2 15/44/2 
f 14/35/4 18/45/4 20/46/4 16/36/4 
f 17/37/1 21/47/1 22/48/1 18/38/1 
f 19/39/6 23/49/6 21/50/6 17/40/6 
f 20/51/8 24/52/8 23/53/8 19/54/8 
f 20/46/4 18/45/4 22/55/4 24/56/4 
f 21/47/1 25/57/1 26/58/1 22/48/1 
f 23/49/6 27/59/6 25/60/6 21/50/6 
f 24/61/2 28/62/2 27/63/2 23/64/2 
f 22/55/4 26/65/4 28/66/4 24/56/4 
f 25/57/1 29/67/1 30/68/1 26/58/1 
f 25/60/6 27/59/6 31/69/6 29/70/6 
f 28/71/9 32/72/9 31/73/9 27/74/9 
f 26/65/4 30/75/4 32/76/4 28/66/4 
f 29/67/1 33/16/1 34/21/1 30/68/1 
f 31/69/6 35/77/6 33/78/6 29/70/6 
f 32/79/2 36/80/2 35/81/2 31/82/2 
f 30/75/4 34/83/4 36/84/4 32/76/4 
f 33/16/1 37/1/1 38/2/1 34/21/1 
f 35/77/6 39/85/6 37/86/6 33/78/6 
f 36/87/10 40/88/10 39/89/10 35/90/10 
f 36/84/4 34/83/4 38/91/4 40/92/4 
f 37/1/1 41/93/1 42/94/1 38/2/1 
f 39/85/6 43/95/6 41/96/6 37/86/6 
f 40/97/2 44/98/2 43/99/2 39/100/2 
f 38/91/4 42/101/4 44/102/4 40/92/4 
f 41/93/1 45/103/1 46/104/1 42/94/1 
f 43/95/6 47/105/6 45/106/6 41/96/6 
f 44/98/2 48/107/2 47/108/2 43/99/2 
f 42/101/4 46/109/4 48/110/4 44/102/4 
f 49/111/1 50/112/1 51/113/1 52/114/1 
f 52/115/6 51/116/6 53/117/6 54/118/6 
f 54/119/2 53/120/2 55/121/2 56/122/2 
f 56/117/4 55/118/4 50/115/4 49/116/4 
f 57/25/1 58/123/1 59/124/1 60/28/1 
f 61/110/6 62/102/6 58/101/6 57/109/6 
f 63/125/2 64/126/2 62/127/2 61/128/2 
f 60/106/4 59/96/4 64/95/4 63/105/4 
f 58/123/1 65/4/1 66/3/1 59/124/1 
f 62/102/6 67/92/6 65/91/6 58/101/6 
f 64/126/2 68/129/2 67/130/2 62/127/2 
f 59/96/4 66/86/4 68/85/4 64/95/4 
f 65/4/1 69/15/1 70/22/1 66/3/1 
f 65/91/6 67/92/6 71/84/6 69/83/6 
f 68/131/11 72/132/11 71/133/11 67/134/11 
f 66/86/4 70/78/4 72/77/4 68/85/4 
f 69/15/1 73/67/1 74/68/1 70/22/1 
f 71/84/6 75/76/6 73/75/6 69/83/6 
f 72/135/2 76/136/2 75/137/2 71/138/2 
f 70/78/4 74/70/4 76/69/4 72/77/4 
f 73/67/1 77/139/1 78/140/1 74/68/1 
f 75/76/6 79/66/6 77/65/6 73/75/6 
f 76/141/12 80/142/12 79/143/12 75/144/12 
f 76/69/4 74/70/4 78/60/4 80/59/4 
f 77/139/1 81/145/1 82/146/1 78/140/1 
f 79/66/6 83/56/6 81/55/6 77/65/6 
f 80/147/2 84/148/2 83/149/2 79/150/2 
f 78/60/4 82/50/4 84/49/4 80/59/4 
f 81/145/1 85/151/1 86/152/1 82/146/1 
f 81/55/6 83/56/6 87/46/6 85/45/6 
f 84/153/7 88/154/7 87/155/7 83/156/7 
f 82/50/4 86/40/4 88/39/4 84/49/4 
f 85/151/1 89/157/1 90/158/1 86/152/1 
f 87/46/6 91/36/6 89/35/6 85/45/6 
f 88/159/2 92/160/2 91/161/2 87/162/2 
f 86/40/4 90/30/4 92/29/4 88/39/4 
f 89/157/1 93/103/1 94/104/1 90/158/1 
f 91/36/6 95/14/6 93/13/6 89/35/6 
f 92/163/8 96/164/8 95/165/8 91/166/8 
f 92/29/4 90/30/4 94/24/4 96/23/4 
f 93/4/1 9/1/1 12/2/1 94/3/1 
f 95/14/6 10/15/6 9/16/6 93/13/6 
f 96/167/2 11/168/2 10/169/2 95/170/2 
f 94/24/4 12/21/4 11/22/4 96/23/4 
f 60/171/1 49/172/1 52/173/1 57/174/1 
f 45/175/1 51/113/1 50/112/1 46/176/1 
f 57/109/6 52/115/6 54/118/6 61/110/6 
f 47/105/6 53/117/6 51/116/6 45/106/6 
f 61/128/2 54/119/2 56/122/2 63/125/2 
f 48/107/2 55/121/2 53/120/2 47/108/2 
f 63/105/4 56/117/4 49/116/4 60/106/4 
f 46/109/4 50/115/4 55/118/4 48/110/4 
# 94 polygons

